<svg xmlns="http://www.w3.org/2000/svg" viewBox="0 0 15 12.48"><defs><style>.a,.b{fill:none;stroke:#fff;stroke-miterlimit:10;}.a{stroke-width:1.1px;}</style></defs><path class="a" d="M11.45,10.75A3.41,3.41,0,0,1,8,13.38a3.41,3.41,0,0,1-3.45-2.63C6.46,10.69,8,7.42,8,5.5,8,7.42,9.54,10.69,11.45,10.75Z" transform="translate(-0.5 -1.45)"/><path class="b" d="M15,7.25a3.5,3.5,0,0,1-3.5,3.5h-.05C9.54,10.69,8,7.42,8,5.5c0,0,2.63-.79,2.63-1.75h.87A3.5,3.5,0,0,1,15,7.25Z" transform="translate(-0.5 -1.45)"/><path class="b" d="M8,5.5c0,1.92-1.54,5.19-3.45,5.25h0a3.5,3.5,0,0,1,0-7h.88C5.38,4.71,8,5.5,8,5.5Z" transform="translate(-0.5 -1.45)"/><path class="a" d="M10.63,3.74h0C10.63,4.71,8,5.5,8,5.5S5.38,4.71,5.38,3.75h0a1.3,1.3,0,0,1,.14-.58A2.8,2.8,0,0,1,8,2C9.44,2,10.62,2.78,10.63,3.74Z" transform="translate(-0.5 -1.45)"/></svg>